<?xml version="1.0" encoding="UTF-8" standalone="no"?>
<svg xmlns:dc="http://purl.org/dc/elements/1.1/"
  xmlns:cc="http://creativecommons.org/ns#"
  xmlns:rdf="http://www.w3.org/1999/02/22-rdf-syntax-ns#"
  xmlns:svg="http://www.w3.org/2000/svg"
  xmlns="http://www.w3.org/2000/svg" id="svg598" version="1.1" viewBox="0 0 114.97606 151.49272" height="100.99514mm" width="76.650711mm">
  <defs id="defs592"/>
  <metadata id="metadata595">
    <rdf:RDF>
      <cc:Work rdf:about="">
        <dc:format>image/svg+xml</dc:format>
        <dc:type rdf:resource="http://purl.org/dc/dcmitype/StillImage"/>
        <dc:title/>
      </cc:Work>
    </rdf:RDF>
  </metadata>
  <g transform="translate(-60.688398,-72.718733)" id="layer1">
    <g id="g590" transform="matrix(0.35277777,0,0,-0.35277777,25.922549,261.74819)">

      <g transform="matrix(1.4984913,0,0,1.4984913,-49.125753,-267.10736)" style="fill:#da2627;fill-opacity:1" id="g245">
        <g style="fill:#da2627;fill-opacity:1" transform="matrix(1,0,0,0.92148588,213.0121,302.9277)" id="g88">
          <path id="path90" style="fill:#da2627;fill-opacity:1;fill-rule:nonzero;stroke:#243c71" d="m 0,0 c 0,0 27.821,1.025 33.519,0 0,0 18.017,-2.385 21.781,-16.058 0,0 1.924,-13.2 -2.546,-13.608 -4.469,-0.408 -4.332,1.472 -4.332,1.472 0,0 -1.933,-10.936 11.668,-10.936 0,0 6.414,0.512 8.896,4.443 0,0 5.649,-6.615 14.115,-3.692 8.466,2.922 4.874,9.929 4.874,9.929 0,0 -3.166,-1.624 -5.646,-0.598 -2.482,1.025 -3.507,2.563 -4.277,7.689 -0.769,5.127 -2.651,13.414 -8.382,19.479 -5.732,6.066 -17.621,12.817 -30.537,11.022 0,0 -22.924,-7.134 -33.359,-6.173 L 0.733,1.965 Z"/>
        </g>
        <g style="fill:#da2627;fill-opacity:1" transform="matrix(1,0,0,0.92148588,268.8245,272.30249)" id="g92">
          <path id="path94" style="fill:#da2627;fill-opacity:1;fill-rule:nonzero;stroke:#243c71" d="m 0,0 c 0,0 -1.367,-7.817 6.459,-9.099 3.839,-0.629 7.036,3.359 7.655,5.663 0,0 0.77,-4.895 6.287,-5.15 3.509,-0.163 5.517,2.819 5.517,6.663 0,0 -2.438,-3.221 -5.646,-2.434 -1.593,0.391 -2.793,2.247 -3.336,5.638 -0.731,4.576 -1.185,14.212 -4.606,20.403 -4.375,7.92 -10.961,14.594 -24.39,17.585 0,0 -7.713,1.121 -15.483,0.203 l -6.085,-1.477 c 0,0 16.777,0.494 24.561,-1.791 C -1.283,33.918 7.784,24.948 9.495,14.866 11.111,5.341 8.415,-2.774 5.454,-3.204 1.925,-3.717 0,0 0,0"/>
        </g>
        <g style="fill:#da2627;fill-opacity:1" transform="matrix(1,0,0,0.92148588,268.8245,272.30249)" id="g96">
          <path id="path98" style="fill:#da2627;fill-opacity:1;stroke:#243c71;stroke-width:0.51200002;stroke-linecap:butt;stroke-linejoin:miter;stroke-miterlimit:10;stroke-dasharray:none;stroke-opacity:1" d="m 0,0 c 0,0 -1.367,-7.817 6.459,-9.099 3.839,-0.629 7.036,3.359 7.655,5.663 0,0 0.77,-4.895 6.287,-5.15 3.509,-0.163 5.517,2.819 5.517,6.663 0,0 -2.438,-3.221 -5.646,-2.434 -1.593,0.391 -2.793,2.247 -3.336,5.638 -0.731,4.576 -1.185,14.212 -4.606,20.403 -4.375,7.92 -10.961,14.594 -24.39,17.585 0,0 -7.713,1.121 -15.483,0.203 l -6.085,-1.477 c 0,0 16.777,0.494 24.561,-1.791 C -1.283,33.918 7.784,24.948 9.495,14.866 11.111,5.341 8.415,-2.774 5.454,-3.204 1.925,-3.717 0,0 0,0 Z"/>
        </g>
        <g style="fill:#da2627;fill-opacity:1" transform="matrix(1,0,0,0.92148588,253.142,397.44137)" id="g108">
          <path id="path110" style="fill:#da2627;fill-opacity:1;fill-rule:nonzero;stroke:#243c71" d="m 0,0 c -2.737,1.949 -4.961,5.669 -4.961,8.15 0,0.09 -0.01,0.178 -0.026,0.266 0.016,0.089 0.026,0.177 0.026,0.266 0,2.481 2.224,6.201 4.961,8.15 2.737,1.949 5.438,4.165 5.438,10.721 0,6.556 -5.896,11.115 -11.2,11.115 -5.304,0 -11.531,-3.921 -11.531,-10.478 0,-6.555 5.096,-8.279 7.833,-8.279 2.736,0 7.651,2.199 7.408,6.976 -0.165,3.222 -2.833,4.876 -4.76,4.757 -3.305,-0.202 -3.819,-1.676 -3.819,-1.676 0,0 0.705,2.179 3.828,2.222 1.88,0.026 5.434,-0.591 5.434,-5.435 0,-4.961 -2.908,-7.443 -12.146,-10.099 -6.3,-1.814 -17.056,-2.142 -23.259,-2.169 l 2.798,34.052 c 0,0 0.378,10.813 9.58,12.25 2.916,0.455 4.83,-1.166 5.722,-2.74 2.186,-3.85 -0.473,-6.369 -2.505,-6.795 0,0 3.418,2.208 2.077,5.756 -0.738,1.955 -2.62,3.328 -5.361,2.744 -5.025,-1.071 -5.829,-5.087 -5.414,-8.105 0.232,-1.693 2.076,-6.594 8.698,-6.954 7.858,-0.429 10.99,5.68 10.99,10.976 0,5.298 -5.389,11.611 -12.497,11.611 0,0 -6.122,0.001 -12.145,-4.955 -5.33,-4.385 -7.528,-4.613 -9.752,-4.613 -0.102,0 -0.203,-0.012 -0.3,-0.026 -0.114,0.014 -0.227,0.026 -0.346,0.026 -2.225,0 -5.133,-0.514 -9.752,4.613 -4.619,5.126 -12.146,4.955 -12.146,4.955 -7.107,0 -12.015,-7.05 -12.015,-12.348 0,-5.296 3.322,-10.708 11.19,-10.708 7.87,0 9.569,4.896 9.248,8.969 -0.201,2.543 -2.008,6.826 -6.969,6.826 -2.656,0 -5.581,-1.574 -5.741,-4.55 -0.201,-3.749 3.597,-5.155 3.597,-5.155 -3.04,0.646 -4.155,2.545 -4.149,5.481 0.007,3.02 2.479,5.094 6.55,4.992 9.191,-0.231 9.58,-12.25 9.58,-12.25 l 2.798,-34.053 c -6.129,0.013 -17.226,0.316 -23.669,2.17 -9.239,2.656 -11.997,4.57 -11.997,9.531 0,4.961 4.321,6.119 6.007,5.827 1.817,-0.312 2.694,-1.877 2.694,-1.877 0,0 -4.072,3.192 -6.969,-1.515 -2.508,-4.076 1.476,-9.356 6.929,-9.291 2.736,0.031 8.126,1.932 8.126,8.486 0,6.556 -6.501,9.391 -11.805,9.391 -5.303,0 -12.829,-3.366 -12.829,-9.922 0,-6.556 3.591,-8.505 6.329,-10.454 2.736,-1.949 4.961,-5.669 4.961,-8.15 0,-0.089 0.01,-0.177 0.026,-0.266 -0.016,-0.088 -0.026,-0.176 -0.026,-0.266 0,-2.481 -2.225,-6.201 -4.961,-8.15 -2.738,-1.949 -6.329,-3.898 -6.329,-10.455 0,-6.555 7.526,-9.922 12.829,-9.922 5.304,0 10.734,3.963 10.985,9.468 0.297,6.549 -4.342,8.886 -7.079,8.886 -2.736,0 -8.528,-2.073 -7.893,-7.446 0.815,-6.883 8.394,-4.255 8.394,-4.255 0,0 -1.135,-1.323 -4.636,-1.377 -1.71,-0.026 -4.885,1.564 -5.136,6.257 -0.267,4.994 3.007,7.383 12.38,9.02 6.787,1.186 17.945,2.167 23.998,2.169 0.03,-10.047 -0.131,-29.729 -1.758,-36.733 -2.225,-9.57 -5.647,-22.385 -14.2,-22.385 -4.811,0 -6.97,3.299 -7.147,6.184 -0.138,2.245 0.924,4.24 2.871,4.24 0,0 -1.912,-1.088 -1.917,-3.541 -0.007,-3.722 2.531,-5.731 6.295,-5.731 3.763,0 6.156,4.156 5.886,7.734 -0.349,4.603 -3.336,8.98 -11.943,8.423 -8.364,-0.542 -11.52,-7.831 -11.194,-12.774 0.34,-5.152 2.95,-11.71 13.043,-11.71 10.045,0 19.546,9.134 27.748,9.222 8.202,-0.088 16.747,-9.372 26.792,-9.372 10.094,0 12.657,5.465 13.28,10.38 0.641,5.062 -1.785,13.553 -10.168,13.553 -8.384,0 -11.708,-3.941 -12.25,-7.722 -0.51,-3.552 2.198,-7.722 5.963,-7.722 3.764,0 6.174,1.889 6.319,5.543 0.096,2.443 -2.018,3.717 -2.018,3.717 4.448,0 4.277,-10.424 -4.277,-10.424 -8.554,0 -11.975,12.815 -14.199,22.385 -1.767,7.605 -1.871,28.483 -1.84,36.733 6.075,-0.005 17.38,-0.29 23.908,-2.169 9.238,-2.656 12.146,-5.138 12.146,-10.099 0,-4.961 -3.763,-5.669 -5.473,-5.669 -1.712,0 -3.594,1.772 -3.594,1.772 0,0 1.669,-1.279 3.467,-0.943 2.389,0.449 4.328,1.761 4.49,5.2 0.201,4.345 -3.676,6.242 -6.414,6.242 -2.737,0 -8.16,-1.285 -8.16,-7.841 0,-6.556 5.186,-10.798 10.489,-10.798 6.326,0 12.894,5.362 12.894,11.917 C 6.33,-3.486 2.737,-1.949 0,0"/>
        </g>
        <g style="fill:#da2627;fill-opacity:1" transform="matrix(1,0,0,0.92148588,168.3086,405.5111)" id="g112">
          <path id="path114" style="fill:#da2627;fill-opacity:1;fill-rule:nonzero;stroke:#243c71" d="m 0,0 c 0,-6.465 -5.246,-11.704 -11.718,-11.704 -6.473,0 -11.719,5.239 -11.719,11.704 0,6.465 5.246,11.705 11.719,11.705 C -5.246,11.705 0,6.465 0,0"/>
        </g>
        <g style="fill:#da2627;fill-opacity:1" transform="matrix(1,0,0,0.92148588,168.3086,405.5111)" id="g116">
          <path id="path118" style="fill:#da2627;fill-opacity:1;stroke:#243c71;stroke-width:0.51200002;stroke-linecap:butt;stroke-linejoin:miter;stroke-miterlimit:10;stroke-dasharray:none;stroke-opacity:1" d="m 0,0 c 0,-6.464 -5.246,-11.704 -11.718,-11.704 -6.473,0 -11.719,5.24 -11.719,11.704 0,6.465 5.246,11.705 11.719,11.705 C -5.246,11.705 0,6.465 0,0 Z"/>
        </g>
        <g style="fill:#da2627;fill-opacity:1" transform="matrix(1,0,0,0.92148588,144.86943,405.2752)" id="g124">
          <path id="path126" style="fill:#da2627;fill-opacity:1;stroke:#243c71;stroke-width:1;stroke-linecap:butt;stroke-linejoin:miter;stroke-miterlimit:10;stroke-dasharray:none;stroke-opacity:1" d="m 0,0 c 0,-2.312 -1.877,-4.186 -4.191,-4.186 -2.315,0 -4.191,1.874 -4.191,4.186 0,2.312 1.876,4.186 4.191,4.186 C -1.877,4.186 0,2.312 0,0 Z"/>
        </g>
        <g style="fill:#da2627;fill-opacity:1" transform="matrix(1,0,0,0.92148588,271.1896,405.5111)" id="g136">
          <path id="path138" style="fill:#da2627;fill-opacity:1;fill-rule:nonzero;stroke:#243c71" d="m 0,0 c 0,-6.465 -5.246,-11.704 -11.718,-11.704 -6.473,0 -11.719,5.239 -11.719,11.704 0,6.465 5.246,11.705 11.719,11.705 C -5.246,11.705 0,6.465 0,0"/>
        </g>
        <g style="fill:#da2627;fill-opacity:1" transform="matrix(1,0,0,0.92148588,271.1896,405.5111)" id="g140">
          <path id="path142" style="fill:#da2627;fill-opacity:1;stroke:#243c71;stroke-width:0.51200002;stroke-linecap:butt;stroke-linejoin:miter;stroke-miterlimit:10;stroke-dasharray:none;stroke-opacity:1" d="m 0,0 c 0,-6.464 -5.246,-11.704 -11.718,-11.704 -6.473,0 -11.719,5.24 -11.719,11.704 0,6.465 5.246,11.705 11.719,11.705 C -5.246,11.705 0,6.465 0,0 Z"/>
        </g>
        <g style="fill:#da2627;fill-opacity:1" transform="matrix(1,0,0,0.92148588,219.5449,460.30671)" id="g144">
          <path id="path146" style="fill:#da2627;fill-opacity:1;fill-rule:nonzero;stroke:#243c71" d="m 0,0 c 0,-6.465 -5.247,-11.705 -11.718,-11.705 -6.473,0 -11.719,5.24 -11.719,11.705 0,6.464 5.246,11.705 11.719,11.705 C -5.247,11.705 0,6.464 0,0"/>
        </g>
        <g style="fill:#da2627;fill-opacity:1" transform="matrix(1,0,0,0.92148588,219.5449,460.30671)" id="g148">
          <path id="path150" style="fill:#da2627;fill-opacity:1;stroke:#243c71;stroke-width:0.51200002;stroke-linecap:butt;stroke-linejoin:miter;stroke-miterlimit:10;stroke-dasharray:none;stroke-opacity:1" d="m 0,0 c 0,-6.465 -5.247,-11.705 -11.718,-11.705 -6.473,0 -11.719,5.24 -11.719,11.705 0,6.464 5.246,11.705 11.719,11.705 C -5.247,11.705 0,6.464 0,0 Z"/>
        </g>
        <g style="fill:#da2627;fill-opacity:1" transform="matrix(1,0,0,0.92148588,251.1987,334.30116)" id="g156">
          <path id="path158" style="fill:#da2627;fill-opacity:1;fill-rule:nonzero;stroke:#243c71" d="m 0,0 c 0,0 3.485,1.11 3.528,-2.434 0.036,-2.991 -2.417,-3.675 -3.849,-3.675 -1.434,0 -6.158,2.209 -6.074,8.189 0.087,5.981 4.791,8.557 8.641,8.557 3.849,0 8.185,-2.429 8.57,-7.896 0.336,-4.773 -1.613,-12.445 -14.587,-19.233 l -0.314,5.257 c 0,0 4.875,3.086 6.672,5.639 C 4.383,-3.043 3.956,1.026 0,0"/>
        </g>
        <g style="fill:#da2627;fill-opacity:1" transform="matrix(1,0,0,0.92148588,251.1987,334.30116)" id="g160">
          <path id="path162" style="fill:#da2627;fill-opacity:1;stroke:#243c71;stroke-width:0.51200002;stroke-linecap:round;stroke-linejoin:round;stroke-miterlimit:10;stroke-dasharray:none;stroke-opacity:1" d="m 0,0 c 0,0 3.485,1.11 3.528,-2.434 0.036,-2.991 -2.417,-3.675 -3.849,-3.675 -1.434,0 -6.158,2.209 -6.074,8.189 0.087,5.981 4.791,8.557 8.641,8.557 3.849,0 8.185,-2.429 8.57,-7.896 0.336,-4.773 -1.613,-12.445 -14.587,-19.233 l -0.314,5.257 c 0,0 4.875,3.086 6.672,5.639 C 4.383,-3.043 3.956,1.026 0,0 Z"/>
        </g>
        <g style="fill:#da2627;fill-opacity:1" transform="matrix(1,0,0,0.92148588,211.5093,311.56838)" id="g164">
          <path id="path166" style="fill:#da2627;fill-opacity:1;fill-rule:nonzero;stroke:#243c71" d="m 0,0 c 0,0 25.404,-0.064 35.156,13.713 0,0 0.961,1.089 3.015,0 2.052,-1.09 1.796,-2.243 0.576,-3.269 C 37.529,9.42 27.713,-0.321 1.475,-1.859 Z"/>
        </g>
        <g style="fill:#da2627;fill-opacity:1" transform="matrix(1,0,0,0.92148588,211.5093,311.56838)" id="g168">
          <path id="path170" style="fill:#da2627;fill-opacity:1;stroke:#243c71;stroke-width:0.51200002;stroke-linecap:butt;stroke-linejoin:miter;stroke-miterlimit:10;stroke-dasharray:none;stroke-opacity:1" d="m 0,0 c 0,0 25.404,-0.064 35.156,13.713 0,0 0.961,1.089 3.015,0 2.052,-1.09 1.796,-2.243 0.576,-3.269 C 37.529,9.42 27.713,-0.321 1.475,-1.859 Z"/>
        </g>
        <g style="fill:#da2627;fill-opacity:1" transform="matrix(1,0,0,0.92148588,274.8917,344.10301)" id="g172">
          <path id="path174" style="fill:#da2627;fill-opacity:1;fill-rule:nonzero;stroke:#243c71" d="m 0,0 c -0.039,7.178 -0.642,13.649 -5.068,13.649 0,0 -3.143,-0.064 -2.31,-4.486 0.835,-4.422 0.901,-9.164 0.577,-12.816 -0.876,-9.912 -5.045,-17.539 -16.892,-25.485 -11.97,-8.027 -22.818,-10.324 -31.799,-12.576 0,0 38.134,2.317 51.798,27.307 0,0 3.73,7.743 3.694,14.407"/>
        </g>
        <g style="fill:#da2627;fill-opacity:1" transform="matrix(1,0,0,0.92148588,281.7699,344.10301)" id="g176">
          <path id="path178" style="fill:#da2627;fill-opacity:1;fill-rule:nonzero;stroke:#243c71" d="m 0,0 c 0,7.178 -0.642,13.649 -5.068,13.649 0,0 -3.143,-0.064 -2.309,-4.486 0.834,-4.422 1.099,-9.187 0.577,-12.816 -1.425,-9.912 -5.656,-17.753 -16.893,-25.485 -9.68,-6.66 -20.029,-9.564 -32.567,-12.214 0,0 39.111,2.329 52.774,27.319 0,0 3.486,5.745 3.486,14.033"/>
        </g>
        <g style="fill:#da2627;fill-opacity:1" transform="matrix(1,0,0,0.92148588,267.001,354.73152)" id="g180">
          <path id="path182" style="fill:#da2627;fill-opacity:1;fill-rule:nonzero;stroke:#243c71" d="m 0,0 c 0,0 -0.62,2.157 -0.62,4.592 0,2.04 1.451,4.465 4.202,4.266 C 5.839,8.695 7.811,7.227 7.762,5.02 7.72,3.033 6.43,2.029 5.154,2.029 c -1.277,0 -2.952,0.684 -2.952,2.222 0,1.538 1.733,2.071 2.93,0.917 C 5.419,4.892 3.874,6.929 2.216,5.439 1.583,4.87 1.667,3.374 2.096,2.477 2.096,2.477 0.321,1.923 0,0"/>
        </g>
        <g style="fill:#da2627;fill-opacity:1" transform="matrix(1,0,0,0.92148588,267.4928,351.1885)" id="g184">
          <path id="path186" style="fill:#da2627;fill-opacity:1;fill-rule:nonzero;stroke:#243c71" d="m 0,0 c 0,0 -5.482,7.289 -3.182,18.156 2.071,9.782 8.924,13.808 16.776,13.883 6.656,0.064 13.5,-4.7 13.5,-12.816 0,-8.116 -6.975,-8.91 -7.489,-8.91 -0.512,0 -7.688,0.538 -7.588,6.091 0.091,4.909 3.444,5.553 5.582,5.553 2.139,0 4.833,-1.622 4.833,-4.784 0,0 0.914,7.569 -9.095,7.569 0,0 -7.863,0.039 -7.927,-8.466 L 5.346,12.432 c 0,0 -2.567,1.472 -4.747,0 C -1.583,10.958 -1.818,8.651 -1.09,5.191 Z"/>
        </g>
        <g style="fill:#da2627;fill-opacity:1" transform="matrix(1,0,0,0.92148588,288.909,370.20151)" id="g188">
          <path id="path190" style="fill:#da2627;fill-opacity:1;fill-rule:nonzero;stroke:#243c71" d="m 0,0 c 0,0 -1.329,3.629 -7.647,3.757 -3.741,0.076 -6.487,-1.984 -7.608,-5.231 -0.698,-2.021 -0.244,-5.735 -0.244,-5.735 0,0 0.391,-2.851 3.053,-3.107 3.539,-0.341 3.154,3.332 3.154,3.332 0,0 -0.282,0.927 -0.434,2.805 -0.17,2.088 0.713,5.098 4.241,5.653 C -1.957,2.029 0,0 0,0"/>
        </g>
        <g style="fill:#da2627;fill-opacity:1" transform="matrix(1,0,0,0.92148588,287.3159,359.37654)" id="g192">
          <path id="path194" style="fill:#da2627;fill-opacity:1;fill-rule:nonzero;stroke:#243c71" d="m 0,0 c 0,0 0.198,5.122 5.47,4.046 0,0 4.046,-0.932 3.939,-4.388 0,0 -0.943,0.66 -1.797,0.599 C 6.416,0.171 5.366,-0.105 4.704,-3.333 3.934,-7.091 4.02,-14.012 1.027,-22.79 -1.92,-31.431 -10.264,-45.712 -26.77,-51.475 l -5.477,0.27 c 0,0 23.708,10.11 26.701,29.418 0,0 1.111,4.102 0,13.072 0,0 -0.933,8.01 -6.514,5.789 0,0 -0.363,7.796 6.514,7.112 C -2.215,3.855 0,0 0,0"/>
        </g>
        <g style="fill:#da2627;fill-opacity:1" transform="matrix(1,0,0,0.92148588,287.3159,359.37654)" id="g196">
          <path id="path198" style="fill:#da2627;fill-opacity:1;stroke:#243c71;stroke-width:0.51200002;stroke-linecap:butt;stroke-linejoin:miter;stroke-miterlimit:10;stroke-dasharray:none;stroke-opacity:1" d="m 0,0 c 0,0 0.198,5.122 5.47,4.046 0,0 4.046,-0.932 3.939,-4.388 0,0 -0.943,0.66 -1.797,0.599 C 6.416,0.171 5.366,-0.105 4.704,-3.333 3.934,-7.091 4.02,-14.012 1.027,-22.79 -1.92,-31.431 -10.264,-45.712 -26.77,-51.475 l -5.477,0.27 c 0,0 23.708,10.11 26.701,29.418 0,0 1.111,4.102 0,13.072 0,0 -0.933,8.01 -6.514,5.789 0,0 -0.363,7.796 6.514,7.112 C -2.215,3.855 0,0 0,0 Z"/>
        </g>
        <g style="fill:#da2627;fill-opacity:1" transform="matrix(1,0,0,0.92148588,257.3781,346.46468)" id="g200">
          <path id="path202" style="fill:#da2627;fill-opacity:1;fill-rule:nonzero;stroke:#243c71" d="m 0,0 c 0,-1.814 1.473,-3.286 3.29,-3.286 1.817,0 3.29,1.472 3.29,3.286 0,1.815 -1.473,3.286 -3.29,3.286 C 1.473,3.286 0,1.815 0,0"/>
        </g>
        <g style="fill:#da2627;fill-opacity:1" transform="matrix(1,0,0,0.92148588,263.1519,367.30832)" id="g204">
          <path id="path206" style="fill:#da2627;fill-opacity:1;fill-rule:nonzero;stroke:#243c71" d="m 0,0 c 0,0 -2.5,-0.268 -6.863,-2.842 -5.775,-3.406 -7.314,-8.691 -7.158,-14.988 0.059,-2.397 0.884,-5.558 1.49,-7.352 0,0 3.019,1.329 5.859,0 0,0 -1.411,6.471 4.188,6.728 0,0 4.472,0.128 4.536,-6.151 0.059,-5.771 4.363,-32.446 -51.578,-39.623 v -3.075 c 0,0 47.986,5.725 53.632,35.906 0,0 1.014,6.727 0,12.75 0,0 -2.185,3.605 -3.3,7.114 C -0.427,-7.662 -0.195,-3.303 0,0"/>
        </g>
        <g style="fill:#da2627;fill-opacity:1" transform="matrix(1,0,0,0.92148588,264.499,345.75634)" id="g208">
          <path id="path210" style="fill:#da2627;fill-opacity:1;fill-rule:nonzero;stroke:#243c71" d="m 0,0 c 0,0 -0.604,-2.434 -2.451,-3.012 -1.847,-0.576 -3.558,0.257 -3.558,0.257 0,0 2.838,-1.282 3.558,-4.934 0.718,-3.653 1.699,-15.216 -21.381,-25.255 0,0 -15.278,-6.186 -27.041,-6.015 v -1.667 c 0,0 21.684,2.692 33.916,9.694 7.628,4.367 15.567,10.62 17.139,22.09 0,0 0.439,4.143 -0.182,8.842"/>
        </g>
        <g style="fill:#243c71;fill-opacity:1" transform="matrix(1,0,0,0.92148588,214.4181,307.54259)" id="g212">
          <path id="path214" style="fill:#243c71;fill-opacity:1;fill-rule:nonzero;stroke:#243c71" d="m 0,0 c 0,-3.779 -3.067,-6.841 -6.848,-6.841 -3.782,0 -6.849,3.062 -6.849,6.841 0,3.778 3.067,6.841 6.849,6.841 C -3.067,6.841 0,3.778 0,0"/>
        </g>
        <g style="fill:#da2627;fill-opacity:1" transform="matrix(1,0,0,0.92148588,225.5699,331.33905)" id="g216">
          <path id="path218" style="fill:#da2627;fill-opacity:1;fill-rule:nonzero;stroke:#243c71" d="m 0,0 c 0,-9.929 -8.059,-17.979 -18,-17.979 -9.942,0 -18,8.05 -18,17.979 0,9.93 8.058,17.979 18,17.979 C -8.059,17.979 0,9.93 0,0"/>
        </g>
        <g style="fill:#da2627;fill-opacity:1" transform="matrix(1,0,0,0.92148588,225.5694,331.33905)" id="g220">
          <path id="path222" style="fill:#da2627;fill-opacity:1;stroke:#243c71;stroke-width:0.51200002;stroke-linecap:butt;stroke-linejoin:miter;stroke-miterlimit:10;stroke-dasharray:none;stroke-opacity:1" d="m 0,0 c 0,-9.929 -8.058,-17.979 -18,-17.979 -9.941,0 -18,8.05 -18,17.979 0,9.93 8.059,17.979 18,17.979 C -8.058,17.979 0,9.93 0,0 Z"/>
        </g>
        <g style="fill:#da2627;fill-opacity:1" transform="matrix(1,0,0,0.92148588,213.0495,307.26679)" id="g224">
          <path id="path226" style="fill:#da2627;fill-opacity:1;fill-rule:nonzero;stroke:#243c71" d="m 0,0 c 0,-3.023 -2.454,-5.474 -5.48,-5.474 -3.026,0 -5.48,2.451 -5.48,5.474 0,3.023 2.454,5.474 5.48,5.474 C -2.454,5.474 0,3.023 0,0"/>
        </g>
        <g style="fill:#da2627;fill-opacity:1" transform="matrix(1,0,0,0.92148588,213.0495,307.26679)" id="g228">
          <path id="path230" style="fill:#da2627;fill-opacity:1;stroke:#243c71;stroke-width:0.155;stroke-linecap:butt;stroke-linejoin:miter;stroke-miterlimit:10;stroke-dasharray:none;stroke-opacity:1" d="m 0,0 c 0,-3.023 -2.454,-5.474 -5.48,-5.474 -3.026,0 -5.48,2.451 -5.48,5.474 0,3.023 2.454,5.474 5.48,5.474 C -2.454,5.474 0,3.023 0,0 Z"/>
        </g>
        <g style="fill:#da2627;fill-opacity:1" transform="matrix(1,0,0,0.92148588,160.0116,267.56199)" id="g232">
          <path id="path234" style="fill:#da2627;fill-opacity:1;fill-rule:nonzero;stroke:#243c71" d="m 0,0 c 0,0 33.27,1.647 51.129,1.647 17.858,0 44.956,-0.825 44.956,-0.825 v 14.271 c 0,0 -24.901,2.333 -45.78,2.333 C 36.155,17.426 0,15.368 0,15.368 Z"/>
        </g>
        <g style="fill:#da2627;fill-opacity:1" transform="matrix(1,0,0,0.92148588,160.0116,267.56199)" id="g236">
          <path id="path238" style="fill:#da2627;fill-opacity:1;stroke:#243c71;stroke-width:0.51200002;stroke-linecap:butt;stroke-linejoin:miter;stroke-miterlimit:10;stroke-dasharray:none;stroke-opacity:1" d="m 0,0 c 0,0 33.27,1.647 51.129,1.647 17.858,0 44.956,-0.825 44.956,-0.825 v 14.271 c 0,0 -24.901,2.333 -45.78,2.333 C 36.155,17.426 0,15.368 0,15.368 Z"/>
        </g>
        <g style="fill:#da2627;fill-opacity:1" transform="matrix(1,0,0,0.92148588,176.6597,282.87184)" id="g240">
          <path id="path242" style="fill:#da2627;fill-opacity:1;fill-rule:nonzero;stroke:#243c71" d="m 0,0 c 0,0 21.794,1.077 33.491,1.077 11.698,0 29.448,-1.053 29.448,-1.053 v 9.86 c 0,0 -17.834,1.528 -29.988,1.528 C 20.364,11.415 0,10.065 0,10.065 Z"/>
        </g>
        <g style="fill:#da2627;fill-opacity:1" transform="matrix(1,0,0,0.92148588,176.6597,282.87184)" id="g244">
          <path id="path246" style="fill:#da2627;fill-opacity:1;stroke:#243c71;stroke-width:0.51200002;stroke-linecap:butt;stroke-linejoin:miter;stroke-miterlimit:10;stroke-dasharray:none;stroke-opacity:1" d="m 0,0 c 0,0 21.794,1.077 33.491,1.077 11.698,0 29.448,-1.053 29.448,-1.053 v 9.86 c 0,0 -17.834,1.528 -29.988,1.528 C 20.364,11.415 0,10.065 0,10.065 Z"/>
        </g>
        <g style="fill:#da2627;fill-opacity:1" transform="matrix(1,0,0,0.92148588,187.2122,292.85051)" id="g248">
          <path id="path250" style="fill:#da2627;fill-opacity:1;fill-rule:nonzero;stroke:#243c71" d="m 0,0 c 0,0 13.83,0.962 21.235,0.962 7.403,0 18.603,-0.506 18.603,-0.506 v 8.312 c 0,0 -13.116,1.283 -18.981,1.283 C 14.99,10.051 0,8.918 0,8.918 Z"/>
        </g>
        <g style="fill:#da2627;fill-opacity:1" transform="matrix(1,0,0,0.92148588,187.2122,292.85051)" id="g252">
          <path id="path254" style="fill:#da2627;fill-opacity:1;stroke:#243c71;stroke-width:0.51200002;stroke-linecap:butt;stroke-linejoin:miter;stroke-miterlimit:10;stroke-dasharray:none;stroke-opacity:1" d="m 0,0 c 0,0 13.83,0.962 21.235,0.962 7.403,0 18.603,-0.506 18.603,-0.506 v 8.312 c 0,0 -13.116,1.283 -18.981,1.283 C 14.99,10.051 0,8.918 0,8.918 Z"/>
        </g>
        <g style="fill:#da2627;fill-opacity:1" transform="matrix(1,0,0,0.92148588,201.454,302.9277)" id="g256">
          <path id="path258" style="fill:#da2627;fill-opacity:1;fill-rule:nonzero;stroke:#243c71" d="m 0,0 c 0,0 -27.821,1.025 -33.519,0 0,0 -18.016,-2.385 -21.78,-16.058 0,0 -1.925,-13.2 2.545,-13.608 4.469,-0.408 4.332,1.472 4.332,1.472 0,0 1.933,-10.936 -11.667,-10.936 0,0 -6.415,0.512 -8.896,4.443 0,0 -5.649,-6.615 -14.116,-3.692 -8.466,2.922 -4.874,9.929 -4.874,9.929 0,0 3.166,-1.624 5.646,-0.598 2.482,1.025 3.507,2.563 4.277,7.689 0.77,5.127 2.651,13.414 8.383,19.479 5.731,6.066 17.62,12.817 30.536,11.022 0,0 22.924,-7.134 33.359,-6.173 l 5.042,-1.004 z"/>
        </g>
        <g style="fill:#da2627;fill-opacity:1" transform="matrix(1,0,0,0.92148588,145.6415,272.30249)" id="g260">
          <path id="path262" style="fill:#da2627;fill-opacity:1;fill-rule:nonzero;stroke:#243c71" d="m 0,0 c 0,0 1.368,-7.817 -6.458,-9.099 -3.84,-0.629 -7.036,3.359 -7.656,5.663 0,0 -0.77,-4.895 -6.286,-5.15 -3.509,-0.163 -5.518,2.819 -5.518,6.663 0,0 2.439,-3.221 5.646,-2.434 1.593,0.391 2.794,2.247 3.336,5.638 0.731,4.576 1.185,14.212 4.605,20.403 4.376,7.92 10.962,14.594 24.392,17.585 0,0 7.713,1.121 15.482,0.203 l 6.085,-1.477 c 0,0 -16.777,0.494 -24.561,-1.791 C 1.283,33.918 -7.784,24.948 -9.495,14.866 -11.111,5.341 -8.415,-2.774 -5.452,-3.204 -1.924,-3.717 0,0 0,0"/>
        </g>
        <g style="fill:#da2627;fill-opacity:1" transform="matrix(1,0,0,0.92148588,145.6415,272.30249)" id="g264">
          <path id="path266" style="fill:#da2627;fill-opacity:1;stroke:#243c71;stroke-width:0.51200002;stroke-linecap:butt;stroke-linejoin:miter;stroke-miterlimit:10;stroke-dasharray:none;stroke-opacity:1" d="m 0,0 c 0,0 1.368,-7.817 -6.458,-9.099 -3.84,-0.629 -7.036,3.359 -7.656,5.663 0,0 -0.77,-4.895 -6.286,-5.15 -3.509,-0.163 -5.518,2.819 -5.518,6.663 0,0 2.439,-3.221 5.646,-2.434 1.593,0.391 2.794,2.247 3.336,5.638 0.731,4.576 1.185,14.212 4.605,20.403 4.376,7.92 10.962,14.594 24.392,17.585 0,0 7.713,1.121 15.482,0.203 l 6.085,-1.477 c 0,0 -16.777,0.494 -24.561,-1.791 C 1.283,33.918 -7.784,24.948 -9.495,14.866 -11.111,5.341 -8.415,-2.774 -5.452,-3.204 -1.925,-3.717 0,0 0,0 Z"/>
        </g>
        <g style="fill:#da2627;fill-opacity:1" transform="matrix(1,0,0,0.92148588,163.8819,334.30116)" id="g268">
          <path id="path270" style="fill:#da2627;fill-opacity:1;fill-rule:nonzero;stroke:#243c71" d="m 0,0 c 0,0 -3.485,1.11 -3.528,-2.434 -0.036,-2.991 2.416,-3.675 3.849,-3.675 1.434,0 6.158,2.209 6.074,8.189 -0.087,5.981 -4.79,8.557 -8.639,8.557 -3.849,0 -8.186,-2.429 -8.571,-7.896 -0.336,-4.773 1.612,-12.445 14.586,-19.233 l 0.314,5.257 c 0,0 -4.876,3.086 -6.673,5.639 C -4.383,-3.043 -3.956,1.026 0,0"/>
        </g>
        <g style="fill:#da2627;fill-opacity:1" transform="matrix(1,0,0,0.92148588,163.8819,334.30116)" id="g272">
          <path id="path274" style="fill:#da2627;fill-opacity:1;stroke:#243c71;stroke-width:0.51200002;stroke-linecap:round;stroke-linejoin:round;stroke-miterlimit:10;stroke-dasharray:none;stroke-opacity:1" d="m 0,0 c 0,0 -3.485,1.11 -3.528,-2.434 -0.036,-2.991 2.416,-3.675 3.849,-3.675 1.434,0 6.158,2.209 6.074,8.189 -0.087,5.981 -4.79,8.557 -8.639,8.557 -3.849,0 -8.186,-2.429 -8.571,-7.896 -0.336,-4.773 1.612,-12.445 14.586,-19.233 l 0.314,5.257 c 0,0 -4.876,3.086 -6.673,5.639 C -4.383,-3.043 -3.956,1.026 0,0 Z"/>
        </g>
        <g style="fill:#da2627;fill-opacity:1" transform="matrix(1,0,0,0.92148588,203.571,311.56838)" id="g276">
          <path id="path278" style="fill:#da2627;fill-opacity:1;fill-rule:nonzero;stroke:#243c71" d="m 0,0 c 0,0 -25.404,-0.064 -35.156,13.713 0,0 -0.961,1.089 -3.015,0 -2.052,-1.09 -1.796,-2.243 -0.577,-3.269 1.219,-1.024 11.035,-10.765 37.273,-12.303 z"/>
        </g>
        <g style="fill:#da2627;fill-opacity:1" transform="matrix(1,0,0,0.92148588,203.571,311.56838)" id="g280">
          <path id="path282" style="fill:#da2627;fill-opacity:1;stroke:#243c71;stroke-width:0.51200002;stroke-linecap:butt;stroke-linejoin:miter;stroke-miterlimit:10;stroke-dasharray:none;stroke-opacity:1" d="m 0,0 c 0,0 -25.404,-0.064 -35.156,13.713 0,0 -0.961,1.089 -3.015,0 -2.052,-1.09 -1.796,-2.243 -0.577,-3.269 1.219,-1.024 11.035,-10.765 37.273,-12.303 z"/>
        </g>
        <g style="fill:#da2627;fill-opacity:1" transform="matrix(1,0,0,0.92148588,140.1886,344.10301)" id="g284">
          <path id="path286" style="fill:#da2627;fill-opacity:1;fill-rule:nonzero;stroke:#243c71" d="m 0,0 c 0.039,7.178 0.642,13.649 5.068,13.649 0,0 3.143,-0.064 2.309,-4.486 C 6.543,4.741 6.478,-0.001 6.8,-3.653 c 0.877,-9.912 5.046,-17.539 16.893,-25.485 11.97,-8.027 22.818,-10.324 31.799,-12.576 0,0 -38.134,2.317 -51.797,27.307 0,0 -3.731,7.743 -3.695,14.407"/>
        </g>
        <g style="fill:#da2627;fill-opacity:1" transform="matrix(1,0,0,0.92148588,148.0793,354.73152)" id="g288">
          <path id="path290" style="fill:#da2627;fill-opacity:1;fill-rule:nonzero;stroke:#243c71" d="m 0,0 c 0,0 0.62,2.157 0.62,4.592 0,2.04 -1.451,4.465 -4.202,4.266 C -5.839,8.695 -7.81,7.227 -7.762,5.02 -7.72,3.033 -6.43,2.029 -5.154,2.029 c 1.277,0 2.952,0.684 2.952,2.222 0,1.538 -1.733,2.071 -2.93,0.917 -0.287,-0.276 1.258,1.761 2.916,0.271 0.633,-0.569 0.549,-2.065 0.12,-2.962 0,0 1.775,-0.554 2.096,-2.477"/>
        </g>
        <g style="fill:#da2627;fill-opacity:1" transform="matrix(1,0,0,0.92148588,147.5875,351.1885)" id="g292">
          <path id="path294" style="fill:#da2627;fill-opacity:1;fill-rule:nonzero;stroke:#243c71" d="m 0,0 c 0,0 5.483,7.289 3.182,18.156 -2.07,9.782 -8.924,13.808 -16.776,13.883 -6.656,0.064 -13.5,-4.7 -13.5,-12.816 0,-8.116 6.976,-8.91 7.489,-8.91 0.513,0 7.689,0.538 7.587,6.091 -0.09,4.909 -3.442,5.553 -5.581,5.553 -2.138,0 -4.833,-1.622 -4.833,-4.784 0,0 -0.914,7.569 9.094,7.569 0,0 7.864,0.039 7.927,-8.466 l 0.064,-3.844 c 0,0 2.567,1.472 4.748,0 C 1.583,10.958 1.817,8.651 1.09,5.191 Z"/>
        </g>
        <g style="fill:#da2627;fill-opacity:1" transform="matrix(1,0,0,0.92148588,126.1714,370.20151)" id="g296">
          <path id="path298" style="fill:#da2627;fill-opacity:1;fill-rule:nonzero;stroke:#243c71" d="m 0,0 c 0,0 1.329,3.629 7.648,3.757 3.74,0.076 6.486,-1.984 7.608,-5.231 0.697,-2.021 0.245,-5.735 0.245,-5.735 0,0 -0.393,-2.851 -3.055,-3.107 -3.539,-0.341 -3.154,3.332 -3.154,3.332 0,0 0.282,0.927 0.435,2.805 C 9.896,-2.091 9.013,0.919 5.485,1.474 1.957,2.029 0,0 0,0"/>
        </g>
        <g style="fill:#da2627;fill-opacity:1" transform="matrix(1,0,0,0.92148588,127.7647,359.37654)" id="g300">
          <path id="path302" style="fill:#da2627;fill-opacity:1;fill-rule:nonzero;stroke:#243c71" d="m 0,0 c 0,0 -0.198,5.122 -5.471,4.046 0,0 -4.044,-0.932 -3.938,-4.388 0,0 0.943,0.66 1.797,0.599 1.197,-0.086 2.246,-0.362 2.907,-3.59 0.77,-3.758 0.685,-10.679 3.679,-19.457 2.946,-8.641 11.29,-22.922 27.797,-28.685 l 5.476,0.27 c 0,0 -23.708,10.11 -26.701,29.418 0,0 -1.112,4.102 0,13.072 0,0 0.933,8.01 6.515,5.789 0,0 0.363,7.796 -6.515,7.112 C 2.215,3.855 0,0 0,0"/>
        </g>
        <g style="fill:#da2627;fill-opacity:1" transform="matrix(1,0,0,0.92148588,127.7647,359.37654)" id="g304">
          <path id="path306" style="fill:#da2627;fill-opacity:1;stroke:#243c71;stroke-width:0.51200002;stroke-linecap:butt;stroke-linejoin:miter;stroke-miterlimit:10;stroke-dasharray:none;stroke-opacity:1" d="m 0,0 c 0,0 -0.198,5.122 -5.471,4.046 0,0 -4.044,-0.932 -3.938,-4.388 0,0 0.943,0.66 1.797,0.599 1.197,-0.086 2.246,-0.362 2.907,-3.59 0.77,-3.758 0.685,-10.679 3.679,-19.457 2.946,-8.641 11.29,-22.922 27.797,-28.685 l 5.476,0.27 c 0,0 -23.708,10.11 -26.701,29.418 0,0 -1.112,4.102 0,13.072 0,0 0.933,8.01 6.515,5.789 0,0 0.363,7.796 -6.515,7.112 C 2.215,3.855 0,0 0,0 Z"/>
        </g>
        <g style="fill:#da2627;fill-opacity:1" transform="matrix(1,0,0,0.92148588,157.7021,346.46468)" id="g308">
          <path id="path310" style="fill:#da2627;fill-opacity:1;fill-rule:nonzero;stroke:#243c71" d="m 0,0 c 0,-1.814 -1.473,-3.286 -3.29,-3.286 -1.817,0 -3.289,1.472 -3.289,3.286 0,1.815 1.472,3.286 3.289,3.286 C -1.473,3.286 0,1.815 0,0"/>
        </g>
        <g style="fill:#da2627;fill-opacity:1" transform="matrix(1,0,0,0.92148588,151.9285,367.30832)" id="g312">
          <path id="path314" style="fill:#da2627;fill-opacity:1;fill-rule:nonzero;stroke:#243c71" d="m 0,0 c 0,0 2.5,-0.268 6.864,-2.842 5.774,-3.406 7.313,-8.691 7.158,-14.988 -0.06,-2.397 -0.884,-5.558 -1.491,-7.352 0,0 -3.019,1.329 -5.859,0 0,0 1.411,6.471 -4.188,6.728 0,0 -4.472,0.128 -4.537,-6.151 -0.058,-5.771 -4.362,-32.446 51.579,-39.623 v -3.075 c 0,0 -47.986,5.725 -53.632,35.906 0,0 -1.012,6.727 0,12.75 0,0 2.185,3.605 3.301,7.114 1.232,3.871 1,8.23 0.805,11.533"/>
        </g>
        <g style="fill:#da2627;fill-opacity:1" transform="matrix(1,0,0,0.92148588,150.5812,345.75634)" id="g316">
          <path id="path318" style="fill:#da2627;fill-opacity:1;fill-rule:nonzero;stroke:#243c71" d="m 0,0 c 0,0 0.604,-2.434 2.451,-3.012 1.847,-0.576 3.558,0.257 3.558,0.257 0,0 -2.838,-1.282 -3.558,-4.934 -0.718,-3.653 -1.699,-15.216 21.382,-25.255 0,0 15.278,-6.186 27.04,-6.015 v -1.667 c 0,0 -21.684,2.692 -33.915,9.694 -7.629,4.367 -15.568,10.62 -17.14,22.09 0,0 -0.438,4.143 0.182,8.842"/>
        </g>
        <g style="fill:#da2627;fill-opacity:1" transform="matrix(1,0,0,0.92148588,133.3107,344.10301)" id="g320">
          <path id="path322" style="fill:#da2627;fill-opacity:1;fill-rule:nonzero;stroke:#243c71" d="m 0,0 c 0,7.178 0.642,13.649 5.068,13.649 0,0 3.143,-0.064 2.309,-4.486 C 6.543,4.741 6.278,-0.024 6.8,-3.653 c 1.425,-9.912 5.656,-17.753 16.893,-25.485 9.68,-6.66 20.03,-9.564 32.566,-12.214 0,0 -39.109,2.329 -52.773,27.319 C 3.486,-14.033 0,-8.288 0,0"/>
        </g>
        <g style="fill:#da2627;fill-opacity:1" transform="matrix(1,0,0,0.92148588,279.62382,405.5111)" id="g132">
          <path id="path134" style="fill:#da2627;fill-opacity:1;stroke:#243c71;stroke-width:1;stroke-linecap:butt;stroke-linejoin:miter;stroke-miterlimit:10;stroke-dasharray:none;stroke-opacity:1" d="m 0,0 c 0,-2.311 -1.877,-4.186 -4.191,-4.186 -2.315,0 -4.192,1.875 -4.192,4.186 0,2.313 1.877,4.186 4.192,4.186 C -1.877,4.186 0,2.313 0,0 Z"/>
        </g>
        <g style="fill:#da2627;fill-opacity:1" transform="matrix(1,0,0,0.92148588,212.023,475.29012)" id="g104">
          <path id="path106" style="fill:#da2627;fill-opacity:1;stroke:#243c71;stroke-width:1;stroke-linecap:butt;stroke-linejoin:miter;stroke-miterlimit:10;stroke-dasharray:none;stroke-opacity:1" d="m 0,0 c 0,-2.457 -1.994,-4.448 -4.454,-4.448 -2.459,0 -4.453,1.991 -4.453,4.448 0,2.457 1.994,4.448 4.453,4.448 C -1.994,4.448 0,2.457 0,0 Z"/>
        </g>
        <g style="fill:#da2627;fill-opacity:1" transform="matrix(1,0,0,0.92148588,214.9939,504.59194)" id="g152">
          <path id="path154" style="fill:#da2627;fill-opacity:1;fill-rule:nonzero;stroke:#243c71" d="m 0,0 c -0.778,-0.903 -1.546,-1.936 -2.255,-3.05 -0.435,2.861 -1.489,5.248 -2.887,6.629 l 2.595,13.014 c -5.45,4.484 -11.81,0 -11.81,0 L -10.87,3.431 c -1.149,-1.208 -2.053,-3.1 -2.549,-5.377 -0.287,-0.152 -0.514,-0.286 -0.674,-0.385 -0.572,0.841 -1.175,1.626 -1.784,2.331 -3.969,4.607 -10.06,5.147 -14.703,8.699 0.142,-0.213 0.363,-0.408 0.49,-0.619 1.887,-3.107 3.755,-5.647 4.879,-9.231 1.164,-3.705 1.611,-7.554 2.661,-11.281 0.672,-2.39 1.627,-6.175 3.849,-7.561 2.039,-1.271 4.349,-0.07 6.328,0.818 0.06,0.061 0.12,0.117 0.177,0.186 0.004,-0.034 0.008,-0.068 0.013,-0.103 -0.063,-0.027 -0.125,-0.055 -0.19,-0.083 -0.054,-0.06 -0.109,-0.126 -0.167,-0.177 l 0.362,0.218 c 0.279,-2.094 1.616,-3.766 3.34,-4.205 l 1.22,-4.603 0.94,4.714 c 1.549,0.566 2.721,2.147 2.979,4.094 l 0.363,-0.218 c -0.057,0.051 -0.113,0.117 -0.168,0.177 -0.064,0.028 -0.126,0.056 -0.189,0.083 0.005,0.035 0.009,0.069 0.013,0.103 0.057,-0.069 0.117,-0.125 0.176,-0.186 1.98,-0.888 4.291,-2.089 6.329,-0.818 2.222,1.386 3.176,5.171 3.849,7.561 1.051,3.727 1.497,7.576 2.661,11.281 1.124,3.584 2.992,6.124 4.878,9.231 0.127,0.211 0.348,0.406 0.49,0.619 C 10.061,5.147 3.969,4.607 0,0"/>
        </g>
      </g>
    </g>
  </g>
</svg>