<svg id="Layer_1" data-name="Layer 1" xmlns="http://www.w3.org/2000/svg" viewBox="0 0 552.87 477.94"><title>GALLERY-icon</title><path d="M10.6,396.53V89.86c2.87-6.45,3.94-13.59,7.68-19.74,13-21.38,32-31.38,57-31.34q167.34.21,334.7.06c8.09,0,16.2-.16,24.29.1,35.07,1.11,60.23,26.87,60.33,62,0,5,.9,6.6,6.32,6.6,36.13,0,62.55,26.65,62.56,62.74q0,142,0,284c0,35.5-26.25,62.27-61.85,62.32q-180,.27-360.08,0c-35.88,0-61.74-26-62-62,0-5.58-1.49-6.71-6.81-6.66-27.57.21-50.77-16.69-59.25-42.49C12.48,402.5,12.63,399.16,10.6,396.53ZM528.9,363v-5.33q0-93.64,0-187.29c0-17.19-11.07-28.42-28.31-28.43q-179.2-.07-358.4,0c-17.35,0-28.23,11-28.25,28.4q-.08,103.64,0,207.26c0,1.27-.78,2.87,1,3.94,1.52-1.78,3-3.51,4.51-5.28,17-20.45,34-41,51.13-61.33,10.47-12.44,25.19-13.6,37.59-3.19,10.6,8.9,21.29,17.72,31.59,27,3.57,3.21,5.18,2.92,8.17-.7q43.29-52.41,87-104.5c10.58-12.64,25.39-13.74,38-3.05q25.53,21.63,51,43.32ZM458.23,482.1v0c14.57,0,29.14.17,43.7-.05,16.06-.24,26.87-11.36,27-27.41.07-14-.06-28.05.07-42.08a7.91,7.91,0,0,0-3.11-6.85q-83.3-70.62-166.39-141.47c-2.61-2.22-3.71-1.9-5.76.58q-40.27,48.57-80.8,96.93c-1.91,2.28-2,3.39.39,5.39q66.48,56.29,132.76,112.79a9.59,9.59,0,0,0,6.86,2.22C428,482.06,443.13,482.1,458.23,482.1Zm-205-408.7q-89.61,0-179.23,0c-18.2,0-28.82,10.73-28.82,28.83q0,141.44,0,282.87c0,17.22,11.12,28.08,28.3,28.56,5.33.15,6-1.8,6-6.38q-.18-117.15,0-234.29a84.6,84.6,0,0,1,.81-14.52c5.44-30.78,30.42-51.06,62.74-51.07q155.2,0,310.4,0c1.44,0,2.88-.08,4.32,0,1.85.13,2.57-.62,2.5-2.49-.16-4.12.2-8.26-1-12.31-3.61-12.33-13.39-19.2-27.82-19.21Q342.28,73.36,253.21,73.4ZM355,482.1c-1.58-1.5-2.07-2-2.61-2.48q-78.72-66.89-157.35-133.87c-3.21-2.75-4.25-1.19-6.1,1.05q-36.19,43.56-72.47,87.05c-1,1.22-2.51,2.24-2.49,4,.08,8.08-1.06,16.28.69,24.21,2.8,12.63,13.49,20,28.28,20q103.33,0,206.67,0Z" transform="translate(-10.6 -38.78)" style="fill:#dc3545"/><path d="M289.21,217.51a57.32,57.32,0,0,1-57,56.88c-31.34,0-57.44-26.2-57.16-57.42a57.11,57.11,0,1,1,114.21.54Zm-34.56-.13a22.55,22.55,0,1,0-45.09,0,22.55,22.55,0,0,0,45.09,0Z" transform="translate(-10.6 -38.78)" style="fill:#dc3545"/></svg>