<svg id="Layer_1" data-name="Layer 1" xmlns="http://www.w3.org/2000/svg" viewBox="0 0 542.69 542.81"><title>PRESS-icon</title><path d="M483.36,553.4H87c-.71-1.77-2.41-1.08-3.65-1.38q-54.28-12.78-67-67c-.29-1.24.39-2.94-1.37-3.66V22.4c4.21-9.09,11.38-11.82,21.22-11.81q183.32.35,366.63.16c12.41,0,18.5,6,18.54,18.47,0,14.84.19,29.67-.1,44.5-.09,4.34,1.32,5.16,5.33,5.14,26.66-.17,53.33-.25,80,0,29.26.23,51,21.84,51,50.89q.12,170.07,0,340.14c0,38-25.47,70.58-62.17,80.7C491.37,551.64,487.09,551.38,483.36,553.4ZM406.8,521.6c-.06-.77,0-1.18-.12-1.39-12.95-17-17.3-36.47-17.27-57.59q.27-207.15.17-414.31c0-4.2-.4-5.92-5.47-5.91q-166.1.29-332.19,0c-4.56,0-5.33,1.26-5.33,5.51q.18,209,.11,418c0,33.59,22.07,55.65,55.66,55.65H406.8Zm17.41-36.22a14.77,14.77,0,0,0,.26,1.73c9,24.38,33.17,38.08,59.17,33.47,24.32-4.32,42.08-26.21,42.09-52.36q.09-168.75,0-337.51c0-11.64-7.45-20.05-17.92-20.09-10.28,0-18.7,8.38-18.43,20.15.47,21,.14,42,.13,63,0,12.93-6.2,19.07-19.2,19.09-14.84,0-29.68.08-44.51,0-3.18,0-4.75.4-4.63,4.23.31,9.35.25,18.72,0,28.08-.08,3.32,1,4.12,4.18,4.08,15.36-.16,30.73-.09,46.1-.07,10.65,0,18,6.55,18,15.88s-7.44,15.89-18,15.91c-15.37,0-30.73.1-46.1-.07-3.24,0-4.23.79-4.15,4.1.23,9.18.25,18.37,0,27.55-.1,3.65.86,4.78,4.64,4.72,15.18-.22,30.37-.12,45.56-.08,10.61,0,18,6.61,18.09,15.9s-7.27,15.86-18,15.88c-15.37,0-30.73.1-46.1-.07-3.22,0-4.28.81-4.2,4.11.21,9,.34,18,0,27-.19,4.59,1.46,5.48,5.68,5.41,14.83-.25,29.67-.06,44.5-.12,5.76,0,10.92,1.34,14.55,6.1,3.84,5,4.74,10.55,2,16.4-2.92,6.23-8,9.25-14.79,9.28-15.89.09-31.79.12-47.68,0-3.22,0-4.3.82-4.22,4.15.21,9.17.29,18.37,0,27.54-.14,4.09,1.17,5,5.07,4.92,15.54-.24,31.08-.15,46.62-.07,7.78,0,13.6,4.2,15.75,10.94,3.42,10.75-4.36,20.71-16.47,20.8C456.27,485.47,440.39,485.38,424.21,485.38Zm36.87-374.81c-12.74,0-24.57.05-36.39,0-2.47,0-3.44.64-3.43,3.25q.11,32,0,64.09c0,2.54.87,3.34,3.39,3.31,9.89-.12,19.78-.19,29.66,0,3.55.08,3.46-1.81,3.45-4.3-.06-12.36,0-24.72,0-37.07C457.75,130.13,457.07,120.38,461.08,110.57Z" transform="translate(-14.9 -10.59)" style="fill:#dc3545"/><path d="M218.41,281H101.85c-12.68,0-18.92-6.17-18.92-18.75q0-48.21,0-96.42C82.93,153.1,89,147,101.77,147H334.35c12.9,0,18.77,5.87,18.78,18.71q0,48.47,0,97c0,12.1-6.16,18.29-18.17,18.3Q276.69,281,218.41,281Zm-.56-31.8c32.84,0,65.67-.06,98.51.07,3.61,0,5.15-.39,5.09-4.69-.27-20.48-.19-41,0-61.44,0-3.38-.79-4.4-4.32-4.4q-99,.18-198.07,0c-3.59,0-4.4,1.11-4.37,4.5.14,20.3.21,40.6,0,60.9,0,4.27,1.21,5.17,5.26,5.15C152.53,249.1,185.19,249.18,217.85,249.18Z" transform="translate(-14.9 -10.59)" style="fill:#dc3545"/><path d="M218.29,110.57q-59.1,0-118.18,0C87.82,110.52,80,100,84,89.21c2.39-6.45,8.39-10.38,16.28-10.42,12.37-.07,24.74,0,37.1,0q98.84,0,197.67,0c10.4,0,17.44,5.82,18,14.73.62,9.53-6.2,16.91-16.08,17-13.95.14-27.91,0-41.86,0Z" transform="translate(-14.9 -10.59)" style="fill:#dc3545"/><path d="M141.58,417.14c-13.94,0-27.89.16-41.83-.05-11.86-.17-19.32-10-15.93-20.65a15.25,15.25,0,0,1,14.68-11c28.58-.2,57.17-.26,85.75,0a15.67,15.67,0,0,1,15.74,16c-.12,8.67-6.78,15.46-16.06,15.63-14.12.24-28.24.06-42.35.06Z" transform="translate(-14.9 -10.59)" style="fill:#dc3545"/><path d="M294.91,417.14c-14.12,0-28.24.12-42.35-.06-8.29-.1-14.51-5.3-16-12.74a16,16,0,0,1,9.5-17.66,19.23,19.23,0,0,1,7.75-1.33c27.36,0,54.71-.05,82.06,0,8.61,0,14.28,4,16.59,11.31a15.93,15.93,0,0,1-5.79,17.39c-3.44,2.56-7.38,3.1-11.52,3.09C321.73,417.12,308.32,417.14,294.91,417.14Z" transform="translate(-14.9 -10.59)" style="fill:#dc3545"/><path d="M141.38,453.58c13.77,0,27.54-.05,41.3,0,10.22.05,17.43,6.78,17.29,16-.13,9-7.22,15.74-17.1,15.78q-41.3.13-82.6,0c-10.08,0-17.45-7.05-17.33-16.12s7.3-15.6,17.67-15.64C114.2,453.54,127.79,453.58,141.38,453.58Z" transform="translate(-14.9 -10.59)" style="fill:#dc3545"/><path d="M141,349c-13.6,0-27.19,0-40.78,0-10.15,0-17.43-6.86-17.28-16,.15-8.92,7.39-15.71,17.16-15.74q41.31-.1,82.61,0c10.1,0,17.41,7,17.26,16.15s-7.24,15.57-17.14,15.61C168.89,349,155,349,141,349Z" transform="translate(-14.9 -10.59)" style="fill:#dc3545"/><path d="M294.52,349c-13.59,0-27.18,0-40.78,0-10.39,0-17.36-6.41-17.39-15.77s7.1-16,17.29-16q41-.09,82.09,0c10.32,0,17.36,6.55,17.38,15.9s-6.93,15.83-17.28,15.87C322.06,349,308.29,349,294.52,349Z" transform="translate(-14.9 -10.59)" style="fill:#dc3545"/><path d="M294.74,453.58c13.77,0,27.54-.05,41.31,0,10.07,0,16.95,6.39,17.06,15.53.12,9.38-6.87,16.18-17.08,16.22q-41.29.12-82.6,0c-10.14,0-17.22-6.92-17.08-16.23.13-9.12,7-15.48,17.09-15.52C267.21,453.53,281,453.58,294.74,453.58Z" transform="translate(-14.9 -10.59)" style="fill:#dc3545"/></svg>