<?xml version="1.0" standalone="no"?>
<!DOCTYPE svg PUBLIC "-//W3C//DTD SVG 20010904//EN"
 "http://www.w3.org/TR/2001/REC-SVG-20010904/DTD/svg10.dtd">
<svg version="1.0" xmlns="http://www.w3.org/2000/svg"
 width="2154.000000pt" height="2154.000000pt" viewBox="0 0 2154.000000 2154.000000"
 preserveAspectRatio="xMidYMid meet">
<metadata>
Created by potrace 1.14, written by Peter Selinger 2001-2017
</metadata>
<g transform="translate(0.000000,2154.000000) scale(0.100000,-0.100000)"
fill="#000000" stroke="none">
<path d="M10657 21533 c-1 -1 -103 -4 -227 -7 -225 -6 -317 -11 -420 -22 -30
-3 -71 -7 -90 -9 -100 -9 -178 -16 -205 -20 -16 -3 -51 -7 -77 -10 -103 -11
-145 -17 -198 -25 -30 -5 -75 -12 -100 -15 -40 -5 -282 -47 -350 -60 -14 -2
-36 -7 -50 -9 -87 -17 -296 -63 -415 -92 -77 -19 -147 -36 -156 -38 -108 -26
-429 -122 -619 -186 -226 -77 -543 -198 -715 -275 -207 -91 -371 -169 -520
-244 -167 -84 -223 -114 -380 -201 -121 -67 -414 -245 -540 -329 -71 -47 -134
-88 -140 -90 -5 -2 -12 -7 -15 -10 -3 -4 -50 -38 -105 -76 -160 -111 -378
-277 -610 -467 -62 -50 -268 -230 -319 -277 -263 -246 -362 -345 -626 -626
-169 -181 -566 -669 -670 -825 -8 -12 -29 -41 -46 -64 -89 -119 -364 -538
-364 -553 0 -3 -6 -14 -14 -22 -54 -62 -357 -628 -498 -931 -39 -82 -62 -135
-143 -325 -7 -16 -22 -50 -33 -75 -39 -86 -180 -476 -240 -660 -60 -185 -159
-535 -187 -660 -2 -8 -15 -62 -29 -120 -36 -151 -105 -500 -121 -615 -3 -22
-10 -65 -15 -95 -5 -30 -12 -77 -15 -105 -3 -27 -8 -61 -10 -75 -2 -14 -6 -47
-10 -75 -3 -27 -8 -66 -10 -85 -2 -19 -7 -62 -10 -95 -4 -33 -8 -78 -10 -100
-2 -22 -7 -74 -10 -115 -3 -41 -8 -95 -10 -120 -25 -299 -25 -1033 -1 -1290 2
-19 7 -78 11 -130 11 -137 17 -204 30 -310 3 -19 7 -57 10 -85 5 -47 22 -170
30 -225 3 -14 11 -72 20 -130 8 -58 17 -112 20 -120 2 -8 7 -35 10 -60 17
-120 127 -612 170 -765 8 -27 29 -99 46 -160 111 -394 296 -900 455 -1243 19
-41 34 -76 34 -79 0 -13 210 -433 287 -573 102 -186 238 -418 305 -518 26 -41
48 -76 48 -78 0 -28 564 -805 619 -854 4 -3 32 -36 63 -75 31 -38 69 -83 83
-100 15 -16 45 -52 68 -79 153 -180 496 -533 706 -726 57 -52 113 -104 125
-115 11 -11 66 -59 121 -105 55 -47 109 -93 120 -104 11 -10 36 -30 55 -44 19
-15 37 -30 40 -33 9 -10 244 -195 280 -219 19 -13 37 -27 40 -30 3 -3 64 -48
135 -99 243 -176 566 -382 841 -540 40 -22 75 -49 79 -58 4 -10 9 -387 11
-838 6 -1186 8 -1323 21 -1336 6 -6 98 -38 205 -70 106 -33 243 -75 303 -94
264 -82 675 -209 730 -225 33 -10 267 -82 520 -160 253 -78 665 -205 915 -282
250 -77 527 -162 615 -189 88 -28 189 -59 225 -70 36 -12 79 -24 95 -29 17 -4
104 -31 195 -59 91 -29 217 -68 280 -87 218 -68 209 -62 260 -159 37 -72 86
-118 160 -153 46 -21 70 -25 150 -26 83 0 103 3 153 27 68 31 145 106 172 168
11 24 24 47 30 51 5 5 87 32 180 62 94 30 229 73 300 96 72 23 135 43 140 44
6 1 57 18 115 36 58 18 110 34 115 36 9 1 291 90 490 154 33 10 220 69 415
130 195 61 389 122 430 135 41 13 156 49 255 80 99 31 236 75 305 97 69 21
132 41 140 43 14 3 197 61 605 190 294 93 410 129 415 130 3 1 59 18 125 39
66 21 125 39 130 41 6 1 17 5 25 8 8 3 40 13 72 22 31 9 62 23 69 32 15 17 17
124 24 1465 2 444 7 812 10 818 6 10 77 57 195 130 464 287 942 649 1374 1039
107 97 539 532 636 641 52 58 97 107 100 110 9 8 209 246 276 330 65 80 208
267 288 377 157 213 466 699 591 928 21 39 53 97 72 130 39 71 273 541 273
549 0 3 16 41 36 83 19 42 44 100 56 127 11 28 28 69 38 91 123 288 290 771
376 1090 24 90 101 393 109 430 62 297 96 473 109 560 2 17 7 50 11 75 13 86
16 105 20 120 2 8 6 42 10 75 3 33 8 71 10 85 2 14 6 52 10 85 3 33 8 74 11
90 2 17 6 57 9 90 2 33 7 88 11 123 35 350 39 1186 8 1510 -2 26 -7 74 -9 107
-5 61 -11 128 -20 200 -2 22 -7 67 -10 100 -4 33 -8 71 -10 85 -2 14 -6 43 -9
65 -8 59 -35 246 -41 278 -5 31 -22 127 -30 174 -3 17 -17 89 -31 160 -34 170
-32 162 -40 185 -3 11 -7 30 -9 41 -3 25 -72 307 -86 352 -5 17 -34 116 -64
220 -30 105 -73 244 -95 310 -23 66 -43 129 -45 140 -3 11 -9 29 -14 40 -6 11
-21 52 -34 90 -34 95 -153 393 -217 540 -95 219 -360 745 -433 862 -15 24 -27
45 -27 48 0 11 -289 479 -327 530 -5 6 -26 37 -48 70 -134 202 -368 514 -546
730 -45 54 -237 275 -273 314 -151 163 -196 210 -322 336 -196 196 -321 312
-505 470 -203 175 -405 338 -566 455 -26 19 -50 37 -53 40 -11 13 -225 160
-385 265 -215 142 -459 289 -650 393 -183 99 -623 313 -795 386 -102 43 -198
84 -215 92 -69 29 -330 126 -470 174 -234 80 -704 216 -835 242 -14 3 -79 18
-145 32 -176 40 -295 65 -335 70 -19 3 -46 8 -60 11 -14 2 -36 7 -50 10 -31 6
-102 17 -255 40 -22 3 -51 8 -65 10 -82 14 -408 49 -555 60 -38 3 -96 8 -128
10 -147 13 -742 27 -750 18z m874 -3270 c13 -16 12 -17 -3 -4 -17 13 -22 21
-14 21 2 0 10 -8 17 -17z m114 -113 c10 -11 16 -20 13 -20 -3 0 -13 9 -23 20
-10 11 -16 20 -13 20 3 0 13 -9 23 -20z m63 -105 c-3 -3 -9 2 -12 12 -6 14 -5
15 5 6 7 -7 10 -15 7 -18z m1309 -7 c-3 -8 -6 -5 -6 6 -1 11 2 17 5 13 3 -3 4
-12 1 -19z m10 -140 c-3 -7 -5 -2 -5 12 0 14 2 19 5 13 2 -7 2 -19 0 -25z m0
-40 c-3 -8 -6 -5 -6 6 -1 11 2 17 5 13 3 -3 4 -12 1 -19z m11 -113 c-3 -3 -9
2 -12 12 -6 14 -5 15 5 6 7 -7 10 -15 7 -18z m-1 -57 c-3 -8 -6 -5 -6 6 -1 11
2 17 5 13 3 -3 4 -12 1 -19z m-1150 -75 c-3 -10 -5 -4 -5 12 0 17 2 24 5 18 2
-7 2 -21 0 -30z m1157 -28 c3 -8 1 -15 -4 -15 -6 0 -10 7 -10 15 0 8 2 15 4
15 2 0 6 -7 10 -15z m3 -127 c-3 -7 -5 -2 -5 12 0 14 2 19 5 13 2 -7 2 -19 0
-25z m-1092 2 c10 -11 16 -20 13 -20 -3 0 -13 9 -23 20 -10 11 -16 20 -13 20
3 0 13 -9 23 -20z m1092 -42 c-3 -8 -6 -5 -6 6 -1 11 2 17 5 13 3 -3 4 -12 1
-19z m-5819 -53 c-3 -3 -9 2 -12 12 -6 14 -5 15 5 6 7 -7 10 -15 7 -18z m5830
-66 c-3 -8 -7 -3 -11 10 -4 17 -3 21 5 13 5 -5 8 -16 6 -23z m-1071 -21 c-3
-7 -5 -2 -5 12 0 14 2 19 5 13 2 -7 2 -19 0 -25z m1070 -20 c-3 -8 -6 -5 -6 6
-1 11 2 17 5 13 3 -3 4 -12 1 -19z m-5737 -52 c0 -6 -7 -1 -15 10 -8 10 -15
23 -15 28 0 6 7 1 15 -10 8 -10 15 -23 15 -28z m5737 -18 c-2 -13 -4 -5 -4 17
-1 22 1 32 4 23 2 -10 2 -28 0 -40z m-1090 -50 c-3 -8 -6 -5 -6 6 -1 11 2 17
5 13 3 -3 4 -12 1 -19z m-4613 -4 c3 -8 2 -12 -4 -9 -6 3 -10 10 -10 16 0 14
7 11 14 -7z m39 -84 c3 -11 2 -18 -3 -15 -4 3 -10 14 -13 25 -3 11 -2 18 3 15
4 -3 10 -14 13 -25z m55 -125 c-3 -3 -9 2 -12 12 -6 14 -5 15 5 6 7 -7 10 -15
7 -18z m4469 -37 c-3 -8 -6 -5 -6 6 -1 11 2 17 5 13 3 -3 4 -12 1 -19z m-4359
-83 c-3 -3 -9 2 -12 12 -6 14 -5 15 5 6 7 -7 10 -15 7 -18z m4339 -7 c-3 -8
-6 -5 -6 6 -1 11 2 17 5 13 3 -3 4 -12 1 -19z m-4288 -88 c11 -24 11 -24 -3
-6 -9 11 -16 24 -16 30 0 12 5 7 19 -24z m5238 -12 c-3 -8 -6 -5 -6 6 -1 11 2
17 5 13 3 -3 4 -12 1 -19z m-986 -11 c-10 -9 -11 -8 -5 6 3 10 9 15 12 12 3
-3 0 -11 -7 -18z m976 -39 c-3 -8 -6 -5 -6 6 -1 11 2 17 5 13 3 -3 4 -12 1
-19z m-5167 -73 c0 -5 -5 -3 -10 5 -5 8 -10 20 -10 25 0 6 5 3 10 -5 5 -8 10
-19 10 -25z m5143 -60 c-3 -9 -8 -14 -10 -11 -3 3 -2 9 2 15 9 16 15 13 8 -4z
m-5083 -110 c0 -5 -5 -3 -10 5 -5 8 -10 20 -10 25 0 6 5 3 10 -5 5 -8 10 -19
10 -25z m5057 -27 c-3 -7 -5 -2 -5 12 0 14 2 19 5 13 2 -7 2 -19 0 -25z
m-5040 -60 c-3 -8 -6 -5 -6 6 -1 11 2 17 5 13 3 -3 4 -12 1 -19z m5020 -60
c-3 -7 -5 -2 -5 12 0 14 2 19 5 13 2 -7 2 -19 0 -25z m-4998 -23 c0 -5 -4 -3
-9 5 -5 8 -9 22 -9 30 0 16 17 -16 18 -35z m4988 -17 c-3 -8 -6 -5 -6 6 -1 11
2 17 5 13 3 -3 4 -12 1 -19z m-1209 -53 c-3 -3 -9 2 -12 12 -6 14 -5 15 5 6 7
-7 10 -15 7 -18z m-3761 -47 c-3 -7 -5 -2 -5 12 0 14 2 19 5 13 2 -7 2 -19 0
-25z m10 -75 c-3 -10 -5 -4 -5 12 0 17 2 24 5 18 2 -7 2 -21 0 -30z m10 -105
c-3 -7 -5 -2 -5 12 0 14 2 19 5 13 2 -7 2 -19 0 -25z m0 -50 c-3 -7 -5 -2 -5
12 0 14 2 19 5 13 2 -7 2 -19 0 -25z m4890 -10 c-3 -7 -5 -2 -5 12 0 14 2 19
5 13 2 -7 2 -19 0 -25z m-10 -40 c-3 -8 -6 -5 -6 6 -1 11 2 17 5 13 3 -3 4
-12 1 -19z m-10 -60 c-3 -8 -6 -5 -6 6 -1 11 2 17 5 13 3 -3 4 -12 1 -19z
m-10 -60 c-3 -7 -5 -2 -5 12 0 14 2 19 5 13 2 -7 2 -19 0 -25z m-20 -100 c-3
-8 -6 -5 -6 6 -1 11 2 17 5 13 3 -3 4 -12 1 -19z m-10 -60 c-3 -7 -5 -2 -5 12
0 14 2 19 5 13 2 -7 2 -19 0 -25z m168 -268 c10 -11 16 -20 13 -20 -3 0 -13 9
-23 20 -10 11 -16 20 -13 20 3 0 13 -9 23 -20z m105 -150 c6 -11 8 -20 6 -20
-3 0 -10 9 -16 20 -6 11 -8 20 -6 20 3 0 10 -9 16 -20z m38 -75 c-3 -3 -9 2
-12 12 -6 14 -5 15 5 6 7 -7 10 -15 7 -18z m42 -100 c0 -5 -5 -3 -10 5 -5 8
-10 20 -10 25 0 6 5 3 10 -5 5 -8 10 -19 10 -25z m7 -37 c-3 -8 -6 -5 -6 6 -1
11 2 17 5 13 3 -3 4 -12 1 -19z m30 -120 c-3 -8 -6 -5 -6 6 -1 11 2 17 5 13 3
-3 4 -12 1 -19z m58 -98 c10 -11 16 -20 13 -20 -3 0 -13 9 -23 20 -10 11 -16
20 -13 20 3 0 13 -9 23 -20z m223 -195 c-3 -3 -9 2 -12 12 -6 14 -5 15 5 6 7
-7 10 -15 7 -18z m29 -67 c-3 -8 -6 -5 -6 6 -1 11 2 17 5 13 3 -3 4 -12 1 -19z
m23 -53 c0 -5 -5 -3 -10 5 -5 8 -10 20 -10 25 0 6 5 3 10 -5 5 -8 10 -19 10
-25z m28 -96 c-3 -8 -7 -3 -11 10 -4 17 -3 21 5 13 5 -5 8 -16 6 -23z m62
-152 c0 -5 -4 -5 -10 -2 -5 3 -10 14 -10 23 0 15 2 15 10 2 5 -8 10 -19 10
-23z m241 -384 c13 -16 12 -17 -3 -4 -17 13 -22 21 -14 21 2 0 10 -8 17 -17z
m50 -60 c13 -16 12 -17 -3 -4 -17 13 -22 21 -14 21 2 0 10 -8 17 -17z m30 -40
c13 -16 12 -17 -3 -4 -17 13 -22 21 -14 21 2 0 10 -8 17 -17z m252 -393 c3
-11 1 -18 -4 -14 -5 3 -9 12 -9 20 0 20 7 17 13 -6z m4 -52 c-3 -8 -6 -5 -6 6
-1 11 2 17 5 13 3 -3 4 -12 1 -19z m0 -50 c-3 -8 -6 -5 -6 6 -1 11 2 17 5 13
3 -3 4 -12 1 -19z m0 -65 c-3 -10 -5 -2 -5 17 0 19 2 27 5 18 2 -10 2 -26 0
-35z m0 -95 c-3 -7 -5 -2 -5 12 0 14 2 19 5 13 2 -7 2 -19 0 -25z m10 -113 c0
-8 -4 -12 -9 -9 -5 3 -6 10 -3 15 9 13 12 11 12 -6z m0 -212 c-3 -10 -5 -2 -5
17 0 19 2 27 5 18 2 -10 2 -26 0 -35z m0 -95 c-3 -8 -6 -5 -6 6 -1 11 2 17 5
13 3 -3 4 -12 1 -19z m0 -215 c-3 -10 -5 -4 -5 12 0 17 2 24 5 18 2 -7 2 -21
0 -30z m3 -113 c0 -5 -2 -10 -4 -10 -3 0 -8 5 -11 10 -3 6 -1 10 4 10 6 0 11
-4 11 -10z m-5 -79 c3 -5 2 -12 -3 -15 -5 -3 -9 1 -9 9 0 17 3 19 12 6z m-8
-138 c-3 -10 -5 -2 -5 17 0 19 2 27 5 18 2 -10 2 -26 0 -35z m0 -100 c-3 -10
-5 -2 -5 17 0 19 2 27 5 18 2 -10 2 -26 0 -35z m0 -98 c0 -8 -4 -12 -9 -9 -5
3 -6 10 -3 15 9 13 12 11 12 -6z m0 -150 c0 -8 -4 -12 -9 -9 -5 3 -6 10 -3 15
9 13 12 11 12 -6z m-3 -85 c-6 -6 -10 -3 -10 10 0 13 4 16 10 10 7 -7 7 -13 0
-20z m1 -29 c3 -5 2 -12 -3 -15 -5 -3 -9 1 -9 9 0 17 3 19 12 6z m-8 -53 c-3
-8 -6 -5 -6 6 -1 11 2 17 5 13 3 -3 4 -12 1 -19z m0 -150 c-3 -7 -5 -2 -5 12
0 14 2 19 5 13 2 -7 2 -19 0 -25z m0 -40 c-3 -8 -6 -5 -6 6 -1 11 2 17 5 13 3
-3 4 -12 1 -19z m0 -65 c-3 -10 -5 -2 -5 17 0 19 2 27 5 18 2 -10 2 -26 0 -35z
m0 -75 c-3 -7 -5 -2 -5 12 0 14 2 19 5 13 2 -7 2 -19 0 -25z m-10 -170 c-3 -8
-6 -5 -6 6 -1 11 2 17 5 13 3 -3 4 -12 1 -19z m0 -75 c-3 -10 -5 -4 -5 12 0
17 2 24 5 18 2 -7 2 -21 0 -30z m3 -133 c0 -5 -5 -10 -11 -10 -5 0 -7 5 -4 10
3 6 8 10 11 10 2 0 4 -4 4 -10z m-13 -112 c-3 -7 -5 -2 -5 12 0 14 2 19 5 13
2 -7 2 -19 0 -25z m0 -50 c-3 -7 -5 -2 -5 12 0 14 2 19 5 13 2 -7 2 -19 0 -25z
m-4 -143 c-3 -9 -8 -14 -10 -11 -3 3 -2 9 2 15 9 16 15 13 8 -4z m-6 -107 c-3
-8 -6 -5 -6 6 -1 11 2 17 5 13 3 -3 4 -12 1 -19z m-150 -240 c-3 -7 -5 -2 -5
12 0 14 2 19 5 13 2 -7 2 -19 0 -25z m-10 -105 c-3 -10 -5 -4 -5 12 0 17 2 24
5 18 2 -7 2 -21 0 -30z m0 -58 c0 -8 -4 -12 -9 -9 -5 3 -6 10 -3 15 9 13 12
11 12 -6z m-10 -77 c-3 -8 -6 -5 -6 6 -1 11 2 17 5 13 3 -3 4 -12 1 -19z m-10
-165 c-3 -10 -5 -2 -5 17 0 19 2 27 5 18 2 -10 2 -26 0 -35z m-2126 -146 c-10
-9 -11 -8 -5 6 3 10 9 15 12 12 3 -3 0 -11 -7 -18z m2116 -9 c-3 -7 -5 -2 -5
12 0 14 2 19 5 13 2 -7 2 -19 0 -25z m-10 -110 c-3 -8 -6 -5 -6 6 -1 11 2 17
5 13 3 -3 4 -12 1 -19z m0 -40 c-3 -8 -6 -5 -6 6 -1 11 2 17 5 13 3 -3 4 -12
1 -19z m-10 -100 c-3 -7 -5 -2 -5 12 0 14 2 19 5 13 2 -7 2 -19 0 -25z m0 -40
c-3 -8 -6 -5 -6 6 -1 11 2 17 5 13 3 -3 4 -12 1 -19z m-10 -80 c-3 -8 -6 -5
-6 6 -1 11 2 17 5 13 3 -3 4 -12 1 -19z m0 -40 c-3 -8 -6 -5 -6 6 -1 11 2 17
5 13 3 -3 4 -12 1 -19z m3 -58 c0 -5 -2 -10 -4 -10 -3 0 -8 5 -11 10 -3 6 -1
10 4 10 6 0 11 -4 11 -10z m-19 -93 c-10 -9 -11 -8 -5 6 3 10 9 15 12 12 3 -3
0 -11 -7 -18z m-4210 -474 c-12 -20 -14 -14 -5 12 4 9 9 14 11 11 3 -2 0 -13
-6 -23z m616 -5 c-3 -8 -6 -5 -6 6 -1 11 2 17 5 13 3 -3 4 -12 1 -19z m-410
-50 c-3 -7 -5 -2 -5 12 0 14 2 19 5 13 2 -7 2 -19 0 -25z m210 -20 c-3 -8 -6
-5 -6 6 -1 11 2 17 5 13 3 -3 4 -12 1 -19z m200 -13 c0 -8 -4 -12 -9 -9 -5 3
-6 10 -3 15 9 13 12 11 12 -6z m-2 -64 c3 -5 2 -12 -3 -15 -5 -3 -9 1 -9 9 0
17 3 19 12 6z m-8 -53 c-3 -8 -6 -5 -6 6 -1 11 2 17 5 13 3 -3 4 -12 1 -19z
m210 -40 c-3 -8 -6 -5 -6 6 -1 11 2 17 5 13 3 -3 4 -12 1 -19z"/>
<path d="M2440 5699 c-113 -70 -215 -134 -227 -141 -11 -7 -44 -26 -72 -43
-32 -19 -51 -37 -51 -48 0 -26 58 -107 76 -107 15 0 38 14 237 144 65 43 122
76 128 74 8 -3 -48 -76 -144 -188 -12 -14 -48 -58 -80 -97 -53 -65 -57 -74
-46 -95 22 -42 61 -88 75 -88 11 0 217 73 274 97 8 3 17 7 20 7 3 1 27 10 53
20 31 13 51 16 58 9 6 -6 -40 -47 -133 -118 -179 -136 -181 -139 -174 -162 10
-32 72 -97 87 -90 19 7 435 338 482 382 l37 36 -56 73 c-30 41 -62 77 -69 80
-12 4 -91 -20 -165 -51 -8 -3 -17 -7 -20 -7 -5 -1 -53 -19 -95 -36 -97 -38
-139 -48 -133 -30 4 14 107 144 184 234 34 39 64 80 68 92 7 23 -65 159 -93
174 -13 6 -68 -24 -221 -121z"/>
<path d="M18663 5641 c-24 -11 -61 -39 -83 -61 -85 -87 -200 -225 -200 -240 0
-16 40 -54 230 -220 52 -46 97 -86 100 -89 6 -7 127 -110 151 -128 18 -14 32
-2 119 97 141 160 177 231 167 326 -21 200 -317 393 -484 315z m194 -157 c96
-61 163 -145 163 -206 0 -43 -108 -188 -140 -188 -12 0 -239 188 -318 264 -14
13 -11 17 69 104 72 79 132 85 226 26z"/>
<path d="M3062 5213 c-10 -26 -47 -141 -104 -323 -25 -80 -43 -104 -165 -209
-35 -30 -63 -61 -63 -70 0 -17 76 -101 92 -101 9 0 42 30 141 123 58 55 77 63
268 102 202 41 239 52 239 69 0 17 -89 96 -108 96 -7 0 -50 -9 -95 -21 -45
-12 -93 -23 -107 -25 -14 -3 -30 -6 -36 -8 -6 -2 -17 -1 -24 4 -10 6 -4 33 26
121 20 63 38 123 39 134 3 28 -18 64 -58 103 l-34 33 -11 -28z"/>
<path d="M18218 5120 c-144 -44 -242 -172 -242 -316 0 -60 5 -81 32 -136 39
-80 126 -169 201 -206 76 -37 193 -39 260 -3 66 35 144 113 177 178 24 50 29
69 28 138 0 100 -24 154 -103 235 -107 109 -231 148 -353 110z m184 -156 c80
-51 141 -139 140 -206 -2 -98 -90 -188 -187 -188 -78 0 -193 89 -234 181 -45
100 31 227 149 249 40 7 79 -4 132 -36z"/>
<path d="M17725 4623 c-11 -2 -43 -15 -71 -29 -137 -67 -220 -226 -189 -364
24 -108 119 -226 224 -277 46 -23 69 -28 131 -28 63 0 84 5 134 30 112 57 207
179 235 305 l10 44 -91 93 c-51 51 -97 93 -104 93 -6 0 -34 -21 -60 -46 -27
-25 -70 -66 -96 -90 -27 -25 -48 -50 -48 -55 0 -5 17 -28 38 -49 l37 -40 53
51 c30 27 59 48 65 46 6 -2 20 -15 30 -30 19 -25 19 -28 3 -70 -34 -89 -122
-158 -196 -153 -108 8 -240 145 -240 249 0 46 38 115 82 150 37 30 45 31 146
27 25 -1 40 6 58 27 26 30 40 66 30 81 -16 27 -124 48 -181 35z"/>
<path d="M3862 4362 c-22 -26 -117 -141 -211 -256 -159 -195 -170 -211 -157
-230 22 -35 359 -287 379 -284 10 2 29 22 43 45 l25 42 -136 101 c-75 55 -135
105 -133 110 2 5 75 102 163 215 88 114 161 212 163 219 3 12 -46 57 -84 79
-7 4 -29 -14 -52 -41z"/>
<path d="M4314 3978 c-151 -51 -271 -216 -271 -372 0 -179 197 -340 392 -319
49 5 97 24 121 47 6 7 25 23 41 37 42 36 92 112 114 177 34 97 27 191 -18 274
-34 62 -80 103 -158 139 -79 37 -145 42 -221 17z m161 -125 c36 -10 85 -53
104 -92 65 -126 -68 -348 -204 -343 -93 4 -180 78 -190 161 -9 70 50 191 117
241 56 42 108 52 173 33z"/>
<path d="M16890 3932 c-51 -33 -80 -66 -80 -91 1 -14 9 -73 19 -131 10 -58 16
-111 13 -118 -6 -16 -22 -11 -143 44 -53 24 -106 44 -118 44 -25 0 -107 -54
-115 -76 -3 -9 41 -32 142 -73 81 -34 176 -76 212 -94 66 -33 68 -35 208 -224
l17 -23 49 38 c27 20 51 42 53 48 2 6 -29 53 -68 105 -83 108 -95 132 -103
214 -10 93 -17 156 -21 174 -1 9 -6 46 -10 83 -9 86 -21 102 -55 80z"/>
<path d="M4895 3663 c-60 -105 -251 -485 -259 -515 -6 -25 -2 -30 45 -53 28
-15 57 -24 65 -21 7 3 37 55 65 115 29 61 58 112 66 115 16 7 50 -11 76 -38
18 -20 42 -93 51 -158 5 -34 17 -93 31 -156 5 -22 56 -51 128 -72 25 -8 27 -6
27 20 0 33 -34 203 -55 272 -7 26 -13 48 -12 49 1 0 23 2 49 4 59 4 101 29
133 77 60 90 49 189 -27 253 -25 21 -325 175 -341 175 -2 0 -20 -30 -42 -67z
m199 -142 c47 -22 91 -49 99 -62 29 -45 -8 -119 -58 -119 -44 0 -205 69 -205
88 0 14 64 132 72 132 4 0 46 -18 92 -39z"/>
<path d="M16336 3522 c-38 -27 -74 -55 -79 -63 -6 -9 13 -76 61 -209 38 -107
65 -199 61 -204 -6 -7 -105 69 -149 114 -48 49 -173 150 -186 150 -13 0 -129
-65 -153 -86 -10 -9 95 -186 263 -441 48 -73 92 -133 97 -133 17 0 63 27 82
48 18 20 17 23 -73 169 -51 81 -100 157 -110 168 -28 32 -53 75 -44 75 5 0 36
-26 70 -58 34 -31 89 -82 124 -112 34 -30 86 -76 114 -102 28 -26 55 -48 59
-48 19 0 97 62 97 78 0 9 -18 69 -41 132 -22 63 -42 122 -44 130 -4 21 -37
103 -45 115 -13 19 -29 75 -21 75 4 0 41 -48 82 -106 106 -152 186 -261 196
-267 4 -3 29 10 55 29 42 32 46 38 38 60 -5 13 -14 30 -20 37 -13 15 -58 76
-88 119 -120 170 -247 346 -261 360 -15 17 -20 15 -85 -30z"/>
<path d="M5515 3462 c-15 -11 -26 -37 -131 -312 -120 -315 -117 -308 -95 -319
9 -5 86 -33 170 -61 131 -45 162 -52 210 -48 102 8 177 63 226 166 77 162 68
358 -18 434 -30 26 -124 69 -232 106 -49 17 -97 33 -105 36 -8 3 -20 2 -25 -2z
m162 -173 c68 -25 109 -52 124 -81 18 -34 13 -137 -10 -201 -55 -157 -110
-187 -252 -140 -41 14 -78 29 -83 33 -8 8 117 372 137 398 13 16 17 16 84 -9z"/>
</g>
</svg>
