<svg id="Layer_1" data-name="Layer 1" xmlns="http://www.w3.org/2000/svg" viewBox="0 0 542.48 542.66"><title>CIRCULAR-icon</title><path d="M19.87,513V48.78c1.12-.25,1-1.25,1.24-2.05,5-18.13,16.22-30.26,34.55-35.46C56.55,11,57.84,11,58,9.57H347.37c16.65,3.22,27.94,14.39,39.06,26Q400.94,50.65,416,65.14c11.9,11.41,17.43,25.07,17.3,41.6-.31,38.33-.1,76.66-.1,115v6.33C448.51,212.84,463,198.39,477.5,184a83.74,83.74,0,0,1,8.67-7.75c14.32-10.66,30.21-12.82,46.51-6.2,16.06,6.54,26,18.93,29,36.32,2.89,17.23-3.13,31.47-15.23,43.56Q491.69,304.61,437,359.29a11.67,11.67,0,0,0-3.83,9.16c.14,44.51.08,89,.09,133.53,0,16.95-6.25,30.82-19.91,41.18-6.41,4.85-14,6.73-21.44,9.06H58c-.5-1.7-2.14-1.65-3.37-2-13.77-4-23.53-12.62-30.07-25.26C22.59,521.1,22.61,516.52,19.87,513ZM401.44,394.79a22.33,22.33,0,0,1-10.74,6.88c-20.72,6.88-41.46,13.69-62.12,20.72-6.9,2.35-13.32,2.35-18.72-2.91-5.58-5.42-5.69-12-3.26-19.09Q317,369.91,327,339.27a30.27,30.27,0,0,1,7.63-12.44c21.29-21.17,42.46-42.46,63.73-63.65,2-1.95,3.16-3.76,3.15-6.77q-.18-57.75,0-115.51c0-3.64-1.17-4.23-4.44-4.22-24.19.13-48.39.09-72.59.06-12.34,0-18.43-6.15-18.44-18.59,0-24-.12-48,.1-72.06,0-4.07-1.09-4.82-4.94-4.82q-115.52.18-231,.1c-12.15,0-18.5,6.16-18.51,18q0,221.49,0,443c0,11.73,6.26,18.07,17.9,18.07q157.11,0,314.21,0c11.28,0,17.62-6.44,17.63-17.81q0-51.66,0-103.32Zm9.8-54.64c.5-.47,1.16-1,1.77-1.65q36.11-36.15,72.25-72.26c1.78-1.78,1.3-2.7-.17-4.15q-9.24-9.09-18.33-18.33c-1.48-1.51-2.36-1.87-4.1-.12q-36,36.25-72.22,72.3c-1.83,1.82-1.79,2.81.05,4.58,6.11,5.87,12,12,18,17.9C409.22,339.11,409.69,340.25,411.24,340.15ZM337.85,72.61c0,9.7.08,19.4-.05,29.1,0,2.46.56,3.32,3.18,3.3q28.83-.17,57.67,0c2.43,0,2.92-.84,2.79-3.05A17.5,17.5,0,0,0,396,90.26q-21.67-21.72-43.41-43.38A18.15,18.15,0,0,0,342,41.43c-2.95-.39-4.39,0-4.27,3.68C338.05,54.27,337.85,63.44,337.85,72.61ZM530.72,213.55c-.43-6.07-3.3-11.07-9.3-13.84s-11.87-2.05-16.77,2.32c-5.4,4.82-10.28,10.2-15.55,15.15-1.83,1.72-1.37,2.67.14,4.16q9.27,9.07,18.35,18.35c1.56,1.61,2.55,1.75,4.19,0,4.73-5,9.72-9.75,14.49-14.71A16.16,16.16,0,0,0,530.72,213.55ZM346,383c11.38-3.81,21.88-7.22,32.29-10.87,4-1.39,6-5.32,9-8,1.16-1,.17-1.87-.57-2.61q-9.74-9.72-19.47-19.46c-.9-.91-1.75-1.25-2.64-.19-2.8,3.33-6.87,5.54-8.32,10.05C353,362,349.62,372,346,383Z" transform="translate(-19.87 -9.57)" style="fill:#dc3545"/><path d="M210.62,168.55q54,0,108,0c2.63,0,5.24-.1,7.85.77,7.34,2.43,11.93,9,11.27,16.52a16,16,0,0,1-14,14.35,44.45,44.45,0,0,1-5.29.14q-107.78,0-215.54,0a33.21,33.21,0,0,1-6.85-.4,15.83,15.83,0,0,1,3.31-31.32c12.7-.19,25.41-.06,38.12-.06Z" transform="translate(-19.87 -9.57)" style="fill:#dc3545"/><path d="M178.28,263.94q-38.92,0-77.84,0c-7.24,0-12.69-3.1-15.62-9.68-2.67-6-1.55-11.77,2.78-16.74,3.62-4.16,8.39-5.42,13.77-5.41q52.15.09,104.3,0c17.3,0,34.6-.11,51.89,0,12.29.11,20.19,11.58,15.32,22.2-3.12,6.81-8.83,9.61-16.24,9.59C230.52,263.89,204.4,263.94,178.28,263.94Z" transform="translate(-19.87 -9.57)" style="fill:#dc3545"/><path d="M178.84,295.73c26.12,0,52.24-.07,78.36,0,12.43.05,20.42,11.14,15.8,21.88-3.06,7.12-8.91,9.94-16.53,9.92-29-.08-57.89,0-86.84,0-23.12,0-46.24.09-69.36,0-12.09-.06-19.86-11-15.66-21.64,2.55-6.47,8.3-10.09,16.4-10.1Q139.92,295.69,178.84,295.73Z" transform="translate(-19.87 -9.57)" style="fill:#dc3545"/><path d="M179.44,359.33c25.94,0,51.88-.08,77.83,0,12.63.05,20.59,11.62,15.5,22.41-3.22,6.8-9,9.4-16.37,9.39q-49.5-.12-99,0c-19.06,0-38.12.1-57.18,0C88.14,391,80.38,380,84.63,369.38c2.57-6.45,8.32-10,16.45-10Q140.26,359.28,179.44,359.33Z" transform="translate(-19.87 -9.57)" style="fill:#dc3545"/><path d="M274.24,488.63c-15.17,0-30.35,0-45.52,0-10.78,0-18-6.35-18-15.78s7.12-16,17.81-16q45.78-.06,91.56,0c10.67,0,17.85,6.57,17.76,16-.09,9.25-7.19,15.69-17.54,15.73C304.94,488.67,289.59,488.63,274.24,488.63Z" transform="translate(-19.87 -9.57)" style="fill:#dc3545"/></svg>